<svg width="390" height="390" viewBox="0 0 390 390" fill="none" xmlns="http://www.w3.org/2000/svg">
<circle cx="195" cy="195" r="194.5" stroke="#4B5563" stroke-dasharray="3 3"/>
<path d="M118.058 187V164.375H133.245V168.25H122.745V173.75H132.464V177.625H122.745V183.125H133.276V187H118.058ZM148.863 170.844C148.675 169.047 147.253 168 144.956 168C142.581 168 141.253 169.094 141.238 170.594C141.222 172.234 142.909 172.969 144.863 173.406L146.894 173.906C150.769 174.797 153.659 176.766 153.675 180.531C153.659 184.672 150.441 187.328 144.925 187.312C139.456 187.328 135.972 184.797 135.831 179.938H140.394C140.55 182.219 142.363 183.375 144.863 183.375C147.331 183.375 148.925 182.219 148.925 180.531C148.925 178.984 147.519 178.266 145.05 177.656L142.581 177.062C138.769 176.125 136.425 174.219 136.425 170.906C136.409 166.797 140.034 164.062 144.988 164.062C150.003 164.062 153.3 166.844 153.363 170.844H148.863ZM171.449 171.656C170.808 169.531 169.105 168.234 166.636 168.219C163.136 168.234 160.761 170.906 160.761 175.656C160.761 180.438 163.058 183.141 166.668 183.156C169.902 183.141 171.824 181.312 171.886 178.469H166.98V174.938H176.418V177.75C176.418 183.688 172.339 187.312 166.636 187.312C160.293 187.312 155.98 182.875 155.98 175.719C155.98 168.375 160.574 164.062 166.543 164.062C171.652 164.062 175.574 167.203 176.199 171.656H171.449ZM184.473 184.688L181.785 193.594H178.473L180.035 184.688H184.473ZM217.176 161.469V182.25H213.176V161.469H217.176ZM193.614 176.156C198.317 174.781 200.411 171.438 200.395 168.062V167.844H194.583V164.75H200.395V161.594H204.458V164.75H210.239V167.844H204.426V168.062C204.395 171.234 206.551 174.391 211.239 175.656L209.333 178.781C206.051 177.875 203.786 175.984 202.489 173.562C201.208 176.203 198.895 178.297 195.52 179.25L193.614 176.156ZM198.114 189.375V180.406H202.145V186.188H217.926V189.375H198.114ZM243.45 161.438V170.781H247.075V174.062H243.45V183.625H239.45V161.438H243.45ZM220.388 177.781C222.434 177.781 224.809 177.766 227.294 177.688V176.047C224.2 175.609 222.278 174.078 222.294 171.844C222.278 169.031 225.044 167.391 229.263 167.406C233.45 167.391 236.216 169.031 236.231 171.844C236.216 174.062 234.309 175.594 231.263 176.047V177.5C233.591 177.359 235.934 177.141 238.138 176.812L238.419 179.562C232.434 180.719 225.7 180.797 220.794 180.844L220.388 177.781ZM221.138 166.594V163.75H227.294V161.344H231.263V163.75H237.419V166.594H221.138ZM224.388 189.375V182.156H228.388V186.188H244.419V189.375H224.388ZM226.106 171.844C226.091 172.906 227.231 173.516 229.263 173.5C231.263 173.516 232.403 172.906 232.419 171.844C232.403 170.641 231.263 170.062 229.263 170.062C227.231 170.062 226.091 170.641 226.106 171.844ZM272.005 161.469V177.844H268.036V175.062H261.63V171.875H268.036V169.156H261.927C260.146 173.656 256.099 176.766 249.849 178.469L248.286 175.312C254.818 173.609 258.036 170.469 258.599 166.562H249.818V163.375H262.943C262.943 164.297 262.88 165.188 262.739 166.031H268.036V161.469H272.005ZM252.818 183.938C252.802 180.422 256.693 178.203 262.536 178.188C268.302 178.203 272.208 180.422 272.224 183.938C272.208 187.5 268.302 189.75 262.536 189.75C256.693 189.75 252.802 187.5 252.818 183.938ZM256.786 183.938C256.786 185.703 258.927 186.594 262.536 186.594C266.068 186.594 268.208 185.703 268.224 183.938C268.208 182.188 266.068 181.281 262.536 181.312C258.927 181.281 256.786 182.188 256.786 183.938ZM136.585 212.344V215.562H125.585V217.672C130.522 218.031 133.46 219.812 133.491 222.75C133.46 226.047 129.726 227.891 123.585 227.875C117.351 227.891 113.616 226.047 113.616 222.75C113.616 219.797 116.569 218.016 121.616 217.656V215.562H110.647V212.344H136.585ZM111.804 208.156C117.069 207.688 119.976 205.75 120.694 203.781H113.022V200.656H134.241V203.781H126.507C127.194 205.766 130.085 207.688 135.491 208.156L134.085 211.281C128.71 210.766 125.101 208.75 123.585 205.984C122.085 208.734 118.507 210.781 113.116 211.281L111.804 208.156ZM117.679 222.75C117.663 224.125 119.647 224.875 123.585 224.875C127.444 224.875 129.476 224.125 129.491 222.75C129.476 221.312 127.444 220.625 123.585 220.594C119.647 220.625 117.663 221.312 117.679 222.75ZM161.796 199.469V215.5H157.796V199.469H161.796ZM137.89 211.875C142.656 210.438 144.734 206.797 144.734 203.25V200.5H148.89V203.25C148.859 206.703 150.952 210.016 155.546 211.438L153.609 214.469C150.359 213.5 148.109 211.531 146.827 208.984C145.531 211.75 143.218 213.938 139.827 215L137.89 211.875ZM142.734 227.562V216.812H161.796V227.562H142.734ZM146.671 224.375H157.89V219.969H146.671V224.375ZM174.539 201.344C179.054 201.328 182.398 204.234 182.414 208.312C182.398 212.406 179.054 215.297 174.539 215.312C170.054 215.297 166.617 212.406 166.632 208.312C166.617 204.234 170.054 201.328 174.539 201.344ZM165.445 218.875C170.523 218.891 177.554 218.828 183.632 217.969L183.945 220.844C177.632 222.078 170.882 222.125 165.914 222.125L165.445 218.875ZM170.601 208.312C170.586 210.562 172.289 211.859 174.539 211.844C176.804 211.859 178.523 210.562 178.539 208.312C178.523 206.094 176.804 204.781 174.539 204.781C172.289 204.781 170.586 206.094 170.601 208.312ZM185.257 227.938V199.438H189.226V227.938H185.257ZM225.742 221.188V224.438H199.711V221.188H225.742ZM202.461 216.438V201.25H206.461V205.969H218.867V201.25H222.836V216.438H202.461ZM206.461 213.312H218.867V209.062H206.461V213.312ZM251.485 199.469V220.562H247.704V210.75H245.235V219.969H241.516V199.969H245.235V207.531H247.704V199.469H251.485ZM228.173 204.875V201.75H239.016V210.594H232.048V213.516C235.157 213.484 237.485 213.328 240.173 212.812L240.516 215.969C237.188 216.562 234.391 216.656 230.173 216.656H228.204V207.656H235.173V204.875H228.173ZM232.204 227.375V218.562H236.204V224.188H252.204V227.375H232.204ZM278.196 199.438V216.438H274.196V199.438H278.196ZM256.009 214.688V201.562H269.603V204.75H259.946V211.5C265.337 211.484 268.478 211.266 271.946 210.594L272.29 213.781C268.446 214.562 264.962 214.703 258.478 214.688H256.009ZM258.728 222.312C258.712 218.781 262.431 216.703 268.509 216.719C274.493 216.703 278.259 218.781 278.29 222.312C278.259 225.828 274.493 227.906 268.509 227.906C262.431 227.906 258.712 225.828 258.728 222.312ZM262.728 222.312C262.728 223.969 264.712 224.812 268.509 224.812C272.274 224.812 274.337 223.969 274.353 222.312C274.337 220.609 272.274 219.844 268.509 219.844C264.712 219.844 262.728 220.609 262.728 222.312Z" fill="white"/>
</svg>
