<svg width="390" height="390" viewBox="0 0 390 390" fill="none" xmlns="http://www.w3.org/2000/svg">
<circle cx="195" cy="195" r="194.5" stroke="#4B5563" stroke-dasharray="3 3"/>
<path d="M123.011 164.281V167.469H96.9794V164.281H107.854V157.844H111.823V164.281H123.011ZM97.6044 155.438C104.042 154.438 107.667 150.109 107.698 146.094V144.062H111.948V146.094C111.933 150.156 115.604 154.438 122.104 155.438L120.417 158.75C115.417 157.844 111.698 155.172 109.823 151.625C107.964 155.156 104.261 157.859 99.2919 158.75L97.6044 155.438ZM148.128 142.438V170.938H144.097V142.438H148.128ZM125.722 164.281V144.688H129.722V151.625H135.847V144.688H139.784V164.281H125.722ZM129.722 161.062H135.847V154.719H129.722V161.062ZM162.152 150.188C162.136 154.516 164.449 159.516 169.121 161.688L166.902 164.812C163.73 163.359 161.48 160.453 160.199 157.047C158.933 160.797 156.589 163.984 153.308 165.531L150.996 162.375C155.73 160.172 158.121 154.891 158.152 150.188V148.438H152.121V145.188H167.871V148.438H162.152V150.188ZM170.089 170.875V142.438H174.089V153.281H178.277V156.625H174.089V170.875H170.089ZM200.637 145.156C200.621 153.906 198.262 161.234 188.012 166.562L185.824 163.562C190.324 161.203 193.137 158.562 194.778 155.406L186.512 156.156L185.981 152.781L196.012 152.188C196.34 150.984 196.543 149.703 196.653 148.344H187.512V145.156H200.637ZM200.574 156.625V153.375H206.043V142.438H210.012V170.875H206.043V156.625H200.574ZM239.379 158.312V161.5H233.504V170.938H229.504V161.5H223.379V170.938H219.379V161.5H213.348V158.312H239.379ZM216.411 155.25V143.781H236.254V155.25H216.411ZM220.348 152.062H232.286V146.938H220.348V152.062ZM264.622 142.438V170.875H260.653V142.438H264.622ZM242.247 163.844V145.156H246.184V160.453C250.028 160.391 254.153 160.031 258.341 159.219L258.841 162.5C253.856 163.547 249.138 163.859 244.747 163.844H242.247ZM284.083 144.781V148.031H273.552V152.719H282.896V155.844H273.552V161.219C277.911 161.188 281.38 161.016 285.364 160.406L285.739 163.625C281.271 164.281 277.193 164.406 272.052 164.406H269.614V144.781H284.083ZM287.927 170.875V142.438H291.958V170.875H287.927ZM171.031 182.094V184.656C171.015 187.312 171.015 190.203 170.296 194.188H174.062V197.406H162.968V208.906H158.968V197.406H148.124V194.188H166.249C166.984 190.531 167.046 187.734 167.062 185.281H151.093V182.094H171.031ZM201.398 194.438V197.594H190.367V200.062H198.242V208.844H194.273V203.219H178.336V200.062H186.429V197.594H175.461V194.438H201.398ZM176.554 190.438C182.726 190.016 185.617 188.172 186.101 186.125H177.961V183.031H186.429V180.469H190.367V183.031H198.898V186.125H190.679C191.148 188.172 194.023 190.016 200.242 190.438L199.023 193.406C193.789 193.047 190.179 191.547 188.382 189.25C186.601 191.547 182.976 193.047 177.773 193.406L176.554 190.438ZM225.196 182.156V194.125H211.289V182.156H225.196ZM212.789 205.812C218.477 205.344 221.477 203.094 221.914 201.094H213.946V198.125H222.039V195.781H226.039V198.125H234.133V201.094H226.164C226.602 203.031 229.586 205.266 235.227 205.812L233.883 208.812C229.149 208.375 225.789 206.656 224.055 204.438C222.305 206.688 218.914 208.359 214.164 208.812L212.789 205.812ZM215.227 191H221.227V185.25H215.227V191ZM229.664 196.562V180.438H233.633V196.562H229.664ZM136.679 240.312V243.562H110.647V240.312H121.616V235.062H113.397V220.25H117.397V224.656H129.804V220.25H133.772V235.062H125.585V240.312H136.679ZM117.397 231.875H129.804V227.844H117.397V231.875ZM148.359 222.906C148.343 226.359 150.359 229.672 154.859 231.062L152.734 234.156C149.718 233.156 147.609 231.219 146.39 228.734C145.156 231.594 142.952 233.844 139.702 234.938L137.546 231.812C142.296 230.234 144.327 226.453 144.359 222.531V219.938H148.359V222.906ZM141.484 241.375C141.468 237.922 145.234 235.875 151.234 235.875C157.124 235.875 160.812 237.922 160.827 241.375C160.812 244.859 157.124 246.891 151.234 246.875C145.234 246.891 141.468 244.859 141.484 241.375ZM145.484 241.375C145.452 242.984 147.499 243.75 151.234 243.75C154.921 243.75 156.89 242.984 156.89 241.375C156.89 239.828 154.921 239 151.234 239C147.499 239 145.452 239.828 145.484 241.375ZM156.546 235.312V218.438H160.546V225.094H164.39V228.406H160.546V235.312H156.546ZM174.195 227.094C174.195 231.406 175.742 235.734 179.789 237.906L177.601 240.812C175.039 239.5 173.336 237.203 172.336 234.438C171.351 237.453 169.648 240 167.07 241.5L164.789 238.5C168.898 236.125 170.414 231.484 170.445 227.094V226.438H165.851V223.25H170.445V219.406H174.164V223.25H178.664V226.438H174.195V227.094ZM177.007 232.469V229.219H180.351V218.906H184.101V245.562H180.351V232.469H177.007ZM186.132 246.875V218.438H189.914V246.875H186.132ZM217.312 218.438V246.875H213.562V218.438H217.312ZM192.219 238.156C197.984 234.75 200.516 230.609 201.062 225.031H193.875V221.812H205.031C205.031 223.234 204.938 224.609 204.766 225.938H207.594V219.062H211.375V245.625H207.594V236.25H203.562V233.031H207.594V229.156H204.109C202.781 233.859 199.875 237.812 194.562 240.969L192.219 238.156ZM242.141 220.656C242.126 224.016 245.563 227.719 252.079 228.531L250.516 231.75C245.548 231.031 241.907 228.734 240.048 225.656C238.173 228.719 234.548 231.031 229.641 231.75L228.048 228.531C234.516 227.719 237.938 224.016 237.954 220.656V219.281H242.141V220.656ZM227.048 237.156V233.906H252.985V237.156H241.923V246.875H237.985V237.156H227.048ZM278.196 218.469V234.312H274.196V218.469H278.196ZM255.853 222.906V219.719H269.04V228.188H259.79V230.562C264.54 230.531 267.899 230.438 271.728 229.781L272.228 232.969C267.868 233.703 264.024 233.812 258.384 233.812H255.884V225.156H265.071V222.906H255.853ZM259.165 246.562V235.5H263.134V237.938H274.228V235.5H278.196V246.562H259.165ZM263.134 243.375H274.228V241.031H263.134V243.375Z" fill="white"/>
</svg>
