<svg width="390" height="390" viewBox="0 0 390 390" fill="none" xmlns="http://www.w3.org/2000/svg">
<circle cx="195" cy="195" r="194.5" stroke="#4B5563" stroke-dasharray="3 3"/>
<path d="M151.281 163.906V166.594C151.265 170.156 151.265 174.156 150.124 180.188L146.124 179.781C147.218 174.406 147.265 170.406 147.281 167.062H130.531V163.906H151.281ZM127.843 186.406V183.156H137.124V173.375H141.093V183.156H153.781V186.406H127.843ZM179.617 161.469V178.125H175.836V171.25H173.273V178H169.523V161.969H173.273V168H175.836V161.469H179.617ZM154.867 175.344C160.242 173.391 162.914 170.453 163.523 166.594H156.242V163.406H167.586C167.586 170.562 164.164 175.391 156.742 178.312L154.867 175.344ZM159.773 182.438V179.219H179.617V189.875H175.648V182.438H159.773ZM207.172 161.438V189.875H203.328V161.438H207.172ZM183.391 183.531V164.656H194.266V167.844H187.297V180.234C190.328 180.203 192.641 180.031 195.297 179.5L195.609 182.75C192.391 183.391 189.531 183.531 185.359 183.531H183.391ZM192.328 175.062V171.812H197.422V161.938H201.141V188.594H197.422V175.062H192.328ZM233.664 161.438V189.938H229.633V161.438H233.664ZM210.696 173.562C210.68 167.359 213.852 163.438 218.227 163.438C222.508 163.438 225.696 167.359 225.696 173.562C225.696 179.812 222.508 183.719 218.227 183.719C213.852 183.719 210.68 179.812 210.696 173.562ZM214.539 173.562C214.524 177.797 216.008 180.109 218.227 180.094C220.383 180.109 221.836 177.797 221.852 173.562C221.836 169.344 220.383 167.031 218.227 167.031C216.008 167.031 214.524 169.344 214.539 173.562ZM261.188 161.438V189.938H257.251V174.688H252.251V171.469H257.251V161.438H261.188ZM238.501 183.5V163.812H251.782V167.031H242.469V171.75H250.751V174.875H242.469V180.25C246.423 180.219 249.579 180.078 253.094 179.531L253.501 182.719C249.344 183.344 245.626 183.484 240.751 183.5H238.501ZM119.452 214.031V217.156H108.733V221.75H104.796V217.156H93.4206V214.031H119.452ZM96.4831 227.375V219.5H100.421V224.188H116.577V227.375H96.4831ZM96.7644 212.031V200.344H100.702V203.312H112.108V200.344H116.077V212.031H96.7644ZM100.702 208.875H112.108V206.281H100.702V208.875ZM131.444 203.875C131.429 207.422 133.413 210.859 137.913 212.281L135.788 215.438C132.741 214.406 130.647 212.359 129.444 209.781C128.194 212.594 125.96 214.797 122.757 215.938L120.601 212.75C125.366 211.234 127.397 207.516 127.413 203.625V200.906H131.444V203.875ZM125.226 220.812V217.656H144.757V227.875H140.788V220.812H125.226ZM135.444 208V204.719H140.788V199.438H144.757V216.375H140.788V208H135.444ZM179.086 199.438V227.875H175.054V199.438H179.086ZM155.273 219.812C162.617 216.344 165.851 211.844 166.492 205.531H156.804V202.406H170.554C170.539 211.031 167.523 218.203 157.367 223L155.273 219.812ZM205.078 199.469V207.469H208.922V210.75H205.078V220.406H201.078V199.469H205.078ZM183.359 215.875V201.469H187.328V205.594H193.141V201.469H197.141V215.875H183.359ZM186.641 227.375V218.25H190.609V224.188H206.109V227.375H186.641ZM187.328 212.75H193.141V208.656H187.328V212.75ZM231.469 202.125V220.938H217.813V202.125H231.469ZM221.751 217.781H227.501V205.25H221.751V217.781ZM235.344 227.875V199.438H239.344V210.156H243.532V213.469H239.344V227.875H235.344ZM256.899 202.625C256.899 205.312 256.665 207.828 256.056 210.188H259.118V200.062H262.837V226.625H259.118V213.406H254.915C253.368 216.781 250.712 219.734 246.368 222.219L244.149 219.5C247.759 217.406 250.024 215.047 251.368 212.297L244.743 212.969L244.306 209.594L252.477 209.156C252.743 208.094 252.899 206.984 252.993 205.812H245.712V202.625H256.899ZM265.149 227.875V199.438H268.899V227.875H265.149ZM286.923 201.406V204.594H277.142V206.812H286.079V209.906H277.142V212.188C282.158 212.188 285.329 212.125 288.923 211.531L289.329 214.656C285.283 215.312 281.658 215.406 275.579 215.375H273.142V201.406H286.923ZM275.923 222.469C275.923 219.062 279.626 217.078 285.704 217.062C291.72 217.078 295.517 219.062 295.548 222.469C295.517 225.906 291.72 227.891 285.704 227.875C279.626 227.891 275.923 225.906 275.923 222.469ZM279.892 222.469C279.892 224.047 281.892 224.844 285.704 224.844C289.47 224.844 291.548 224.047 291.548 222.469C291.548 220.953 289.47 220.141 285.704 220.156C281.892 220.141 279.892 220.953 279.892 222.469ZM291.392 216.688V199.469H295.392V216.688H291.392Z" fill="white"/>
</svg>
