<svg width="640" height="400" viewBox="0 0 640 400" fill="none" xmlns="http://www.w3.org/2000/svg">
<mask id="mask0_313_1739" style="mask-type:alpha" maskUnits="userSpaceOnUse" x="0" y="0" width="640" height="400">
<rect width="640" height="400" fill="#D9D9D9"/>
</mask>
<g mask="url(#mask0_313_1739)">
<path d="M611 -95C620 -28.0003 617.008 51.4997 555.009 76C509.065 94.1555 472.009 68.9997 451.008 42.9997C417.339 1.3145 425.009 -49.5 500.009 -28.0003C596.531 -0.330824 646.715 112.919 555.009 131C484 145 453.509 51.4997 387.008 90.9998C354.63 110.232 356.008 136.5 356.008 172V196" stroke="black" stroke-width="3" stroke-linecap="round"/>
<rect x="239" y="299" width="98" height="56" fill="black" stroke="black" stroke-width="2"/>
<rect x="166.478" y="259.559" width="103.962" height="71.3959" fill="white" stroke="black" stroke-width="2"/>
<rect x="55" y="170.627" width="164.085" height="113.983" fill="#FFE03B" stroke="black" stroke-width="2"/>
<rect x="55" y="170.627" width="164.085" height="113.983" fill="#FFE03B" stroke="black" stroke-width="2"/>
<rect x="288" y="249" width="126" height="82" fill="#6AFFED" stroke="black" stroke-width="2"/>
<path d="M55 284.607L165.852 330.326" stroke="black" stroke-width="2"/>
<path d="M219.085 283.984L269.814 330.329" stroke="black" stroke-width="2"/>
<path d="M219.085 170L270.44 259.558" stroke="black" stroke-width="2"/>
<path fill-rule="evenodd" clip-rule="evenodd" d="M337.464 241.821L356.395 278L375.326 241.821C381.175 230.643 376.057 217.724 365.806 212.701L365.806 198L346.983 198L346.983 212.701C336.733 217.724 331.615 230.643 337.464 241.821Z" fill="#FFE03B"/>
<path d="M356.395 278L355.066 278.695L356.395 281.235L357.724 278.695L356.395 278ZM337.464 241.821L338.793 241.125L338.793 241.125L337.464 241.821ZM375.326 241.821L373.997 241.125L373.997 241.125L375.326 241.821ZM365.806 212.701L364.306 212.701L364.306 213.636L365.146 214.048L365.806 212.701ZM365.806 198L367.306 198L367.306 196.5L365.806 196.5L365.806 198ZM346.983 198L346.983 196.5L345.483 196.5L345.483 198L346.983 198ZM346.983 212.701L347.643 214.048L348.483 213.637L348.483 212.701L346.983 212.701ZM357.724 277.305L338.793 241.125L336.135 242.516L355.066 278.695L357.724 277.305ZM373.997 241.125L355.066 277.305L357.724 278.695L376.655 242.516L373.997 241.125ZM365.146 214.048C374.687 218.723 379.43 230.742 373.997 241.125L376.655 242.516C382.919 230.544 377.427 216.724 366.466 211.354L365.146 214.048ZM364.306 198L364.306 212.701L367.306 212.701L367.306 198L364.306 198ZM346.983 199.5L365.806 199.5L365.806 196.5L346.983 196.5L346.983 199.5ZM348.483 212.701L348.483 198L345.483 198L345.483 212.701L348.483 212.701ZM338.793 241.125C333.36 230.742 338.102 218.723 347.643 214.048L346.323 211.354C335.363 216.725 329.87 230.544 336.135 242.516L338.793 241.125Z" fill="black"/>
<path d="M356.394 278L356.394 228" stroke="black" stroke-width="3"/>
<circle cx="356.394" cy="233" r="5" transform="rotate(180 356.394 233)" fill="black"/>
<path d="M90.0977 219L84.4375 199.203H88.9219L92.2578 213.039H92.4219L96.0586 199.203H99.9141L103.551 213.066H103.715L107.051 199.203H111.535L105.875 219H101.855L98.082 205.93H97.918L94.1172 219H90.0977ZM130.088 209.102C130.088 215.568 126.083 219.273 120.846 219.273C115.569 219.273 111.577 215.541 111.577 209.102C111.577 202.635 115.569 198.93 120.846 198.93C126.083 198.93 130.088 202.635 130.088 209.102ZM115.76 209.102C115.76 213.326 117.77 215.623 120.846 215.637C123.895 215.623 125.919 213.326 125.905 209.102C125.919 204.863 123.895 202.58 120.846 202.566C117.77 202.58 115.76 204.863 115.76 209.102ZM132.482 219V199.203H140.247C144.745 199.203 147.329 201.732 147.329 205.656C147.329 208.363 146.085 210.332 143.829 211.303L148.04 219H143.501L139.714 211.973H136.583V219H132.482ZM136.583 208.637H139.482C141.915 208.637 143.105 207.639 143.091 205.656C143.105 203.66 141.915 202.58 139.482 202.566H136.583V208.637ZM149.613 219V199.203H153.715V207.98H153.988L161.179 199.203H166.129L158.746 208.062L166.211 219H161.289L155.793 210.824L153.715 213.34V219H149.613ZM104.371 227.633V236.93H108.035V239.855H104.371V252.516H100.871V227.633H104.371ZM85.5312 246.746V229.602H89.0039V235.672H94.1719V229.602H97.6445V246.746H85.5312ZM89.0039 243.93H94.1719V238.379H89.0039V243.93ZM131.155 246.883V249.754H108.378V246.883H117.975V243.137H111.003V234.77H125.085V232.035H110.975V229.246H128.53V237.504H114.503V240.293H129.104V243.137H121.448V246.883H131.155ZM151.65 227.633V237.176H155.177V240.047H151.65V252.461H148.15V227.633H151.65ZM131.743 245.488C137.636 242.535 140.808 238.57 141.464 233.02H133.165V230.176H145.005C144.978 237.613 142.079 244.053 133.712 248.168L131.743 245.488ZM176.574 227.633V252.516H173.047V227.633H176.574ZM155.738 245.461C162.164 242.426 164.994 238.488 165.554 232.965H157.078V230.23H169.109C169.095 237.777 166.457 244.053 157.57 248.25L155.738 245.461Z" fill="black"/>
</g>
</svg>
