<svg width="48" height="48" viewBox="0 0 48 48" fill="none" xmlns="http://www.w3.org/2000/svg">
<path d="M38.6666 20.9466C38.7326 19.0382 38.3152 17.144 37.4533 15.44C36.8685 14.7408 36.0569 14.2689 35.16 14.1066C31.45 13.77 27.7247 13.632 24 13.6933C20.2888 13.6293 16.5769 13.7628 12.88 14.0933C12.149 14.2263 11.4726 14.5691 10.9333 15.08C9.73329 16.1866 9.59995 18.08 9.46662 19.68C9.27317 22.5567 9.27317 25.4432 9.46662 28.32C9.50519 29.2205 9.63928 30.1144 9.86662 30.9866C10.0274 31.6601 10.3527 32.2831 10.8133 32.8C11.3563 33.3379 12.0485 33.7003 12.8 33.84C15.6745 34.1948 18.5709 34.3419 21.4666 34.28C26.1333 34.3466 30.2266 34.28 35.0666 33.9066C35.8366 33.7755 36.5482 33.4127 37.1066 32.8666C37.4799 32.4932 37.7587 32.0361 37.92 31.5333C38.3968 30.0701 38.631 28.5388 38.6133 27C38.6666 26.2533 38.6666 21.7466 38.6666 20.9466ZM20.9866 27.8V19.5466L28.88 23.6933C26.6666 24.92 23.7466 26.3066 20.9866 27.8Z" fill="#1E293B"/>
</svg>
