<svg width="48" height="48" viewBox="0 0 48 48" fill="none" xmlns="http://www.w3.org/2000/svg">
<path d="M26.2202 18.4178C26.2202 18.4178 23.7588 18.4178 21.5245 20.5393V12H16V34.4378H21.5792V32.6815C21.5792 32.6815 22.8962 35 26.216 35C26.216 35 34 34.721 34 26.6248C34 26.6248 33.7139 18.4178 26.216 18.4178H26.2202ZM25.0042 30.2605C23.0435 30.2605 21.453 28.7094 21.453 26.7971C21.453 24.8849 23.0435 23.3379 25.0042 23.3379C26.9649 23.3379 28.5512 24.889 28.5512 26.7971C28.5512 28.7053 26.9607 30.2605 25.0042 30.2605Z" fill="#1E293B"/>
</svg>
