<svg width="120" height="35" viewBox="0 0 120 35" fill="none" xmlns="http://www.w3.org/2000/svg">
<g clip-path="url(#clip0_24_178)">
<path d="M106.767 34.4355C109.821 34.4355 112.322 33.0978 113.689 30.7419V33.9121H120V0.814453H113.398V12.9134C111.827 10.4412 109.675 9.36515 106.476 9.36515C100.834 9.36515 96.9074 14.4549 96.9074 21.784C96.8783 29.2876 100.892 34.4355 106.767 34.4355ZM108.628 14.862C111.624 14.862 113.456 17.5959 113.456 21.8713C113.456 26.2339 111.478 29.0259 108.337 29.0259C105.487 29.0259 103.48 26.0303 103.48 21.8131C103.48 17.5959 105.516 14.862 108.628 14.862Z" fill="black"/>
<path d="M44.5572 29.0839C40.6018 29.0839 38.1878 26.67 38.1878 22.6274H31.0332C31.0332 30.0146 36.2682 34.6972 44.4409 34.6972C52.3807 34.6972 57.4415 30.5673 57.4415 24.0233C57.4415 19.4572 54.6784 16.4616 48.8617 14.7747L44.121 13.4368C39.9038 12.1862 38.7694 11.3428 38.7694 9.24871C38.7694 7.03834 40.7472 5.52596 43.5974 5.52596C47.1166 5.52596 49.3562 7.53276 49.3562 10.6738V11.081H56.4526C56.278 4.30444 51.5664 0 44.3245 0C36.6754 0 31.6439 3.92635 31.6439 9.80131C31.6439 14.193 34.3196 17.4213 39.1186 18.8756L44.6154 20.4461C48.9199 21.7258 50.2285 22.8309 50.2285 25.0704C50.2285 27.5425 48.0183 29.0839 44.5572 29.0839Z" fill="black"/>
<path d="M72.5928 33.8829L75.2395 25.7104H87.6875L90.3631 33.8829H97.6342L86.1169 0.814453H77.0137L66.3107 31.6435L65.4673 33.8829H65.5255H72.5928ZM81.4343 6.04957L85.797 19.8063H77.0428L81.4343 6.04957Z" fill="black"/>
<path d="M6.95109 19.6027H20.7078V33.8829H27.6589V0.814453H20.7078V13.7859H6.95109V0.814453H0V33.8829H6.95109V19.6027Z" fill="black"/>
</g>
<defs>
<clipPath id="clip0_24_178">
<rect width="120" height="34.6988" fill="white"/>
</clipPath>
</defs>
</svg>
