<svg width="121" height="40" viewBox="0 0 121 40" fill="none" xmlns="http://www.w3.org/2000/svg">
<path d="M24.9467 20.9467C26.2539 19.9182 27.208 18.5079 27.6763 16.9119C28.1446 15.316 28.1039 13.6137 27.5597 12.042C27.0155 10.4702 25.995 9.10719 24.6401 8.14248C23.2852 7.17776 21.6633 6.65934 20 6.65934C18.3367 6.65934 16.7148 7.17776 15.3599 8.14248C14.005 9.10719 12.9845 10.4702 12.4403 12.042C11.8961 13.6137 11.8553 15.316 12.3237 16.9119C12.792 18.5079 13.7461 19.9182 15.0533 20.9467C12.8134 21.8441 10.859 23.3325 9.39852 25.2532C7.93799 27.174 7.02608 29.4551 6.76 31.8533C6.74074 32.0284 6.75615 32.2056 6.80536 32.3747C6.85457 32.5439 6.93662 32.7017 7.04681 32.8391C7.26935 33.1167 7.59304 33.2944 7.94666 33.3333C8.30028 33.3722 8.65488 33.2691 8.93243 33.0465C9.20998 32.824 9.38776 32.5003 9.42666 32.1467C9.71944 29.5403 10.9622 27.1331 12.9176 25.3851C14.873 23.637 17.4039 22.6707 20.0267 22.6707C22.6495 22.6707 25.1803 23.637 27.1357 25.3851C29.0911 27.1331 30.3339 29.5403 30.6267 32.1467C30.6629 32.4743 30.8192 32.7769 31.0655 32.996C31.3117 33.2152 31.6304 33.3353 31.96 33.3333H32.1067C32.4562 33.2931 32.7756 33.1164 32.9954 32.8417C33.2152 32.5669 33.3175 32.2165 33.28 31.8667C33.0127 29.4616 32.0958 27.1747 30.6278 25.2509C29.1598 23.3272 27.1959 21.8393 24.9467 20.9467ZM20 20C18.9452 20 17.914 19.6872 17.037 19.1012C16.1599 18.5151 15.4763 17.6822 15.0726 16.7076C14.669 15.7331 14.5634 14.6608 14.7691 13.6262C14.9749 12.5916 15.4829 11.6413 16.2288 10.8954C16.9746 10.1496 17.9249 9.6416 18.9595 9.43581C19.9941 9.23003 21.0664 9.33564 22.041 9.73931C23.0155 10.143 23.8485 10.8266 24.4345 11.7036C25.0205 12.5807 25.3333 13.6118 25.3333 14.6667C25.3333 16.0812 24.7714 17.4377 23.7712 18.4379C22.771 19.4381 21.4145 20 20 20Z" fill="white"/>
<path d="M45.3125 13.6875L47.8906 22.0312H47.9844L50.5625 13.6875H53.5312L49.7031 25H46.1719L42.3281 13.6875H45.3125ZM57.3906 13.6875V25H54.7344V13.6875H57.3906ZM59.1094 25V13.6875H63.7344C66.2812 13.6875 67.8516 15.2734 67.8438 17.5781C67.8516 19.9141 66.25 21.4531 63.6562 21.4531H61.7656V25H59.1094ZM61.7656 19.3438H63.1719C64.4297 19.3516 65.0938 18.6484 65.0938 17.5781C65.0938 16.5234 64.4297 15.8438 63.1719 15.8438H61.7656V19.3438ZM72.7656 25V13.6875H77.3906C79.9375 13.6875 81.5078 15.1328 81.5 17.4375C81.5078 19 80.7891 20.1094 79.5391 20.6797L81.9062 25H78.9844L76.9062 21.1094H75.4219V25H72.7656ZM75.4219 18.9844H76.8281C78.0859 18.9922 78.75 18.5 78.75 17.4375C78.75 16.375 78.0859 15.8438 76.8281 15.8438H75.4219V18.9844ZM93.6094 19.3438C93.6172 23.0703 91.2656 25.1562 88.2344 25.1562C85.1875 25.1562 82.8594 23.0547 82.8594 19.3438C82.8594 15.6094 85.1875 13.5312 88.2344 13.5312C91.2656 13.5312 93.6172 15.6094 93.6094 19.3438ZM85.5781 19.3438C85.5781 21.5938 86.5859 22.8125 88.2344 22.8125C89.8906 22.8125 90.8984 21.5938 90.8906 19.3438C90.8984 17.0938 89.8906 15.8672 88.2344 15.875C86.5859 15.8672 85.5781 17.0938 85.5781 19.3438ZM105.797 19.3438C105.805 23.0703 103.453 25.1562 100.422 25.1562C97.375 25.1562 95.0469 23.0547 95.0469 19.3438C95.0469 15.6094 97.375 13.5312 100.422 13.5312C103.453 13.5312 105.805 15.6094 105.797 19.3438ZM97.7656 19.3438C97.7656 21.5938 98.7734 22.8125 100.422 22.8125C102.078 22.8125 103.086 21.5938 103.078 19.3438C103.086 17.0938 102.078 15.8672 100.422 15.875C98.7734 15.8672 97.7656 17.0938 97.7656 19.3438ZM107.375 13.6875H110.672L113.594 20.8125H113.719L116.641 13.6875H119.938V25H117.344V17.9688H117.25L114.5 24.9375H112.812L110.062 17.9375H109.969V25H107.375V13.6875Z" fill="white"/>
</svg>
