<svg width="40" height="40" viewBox="0 0 40 40" fill="none" xmlns="http://www.w3.org/2000/svg">
<path d="M24.9467 20.9467C26.2539 19.9182 27.208 18.5079 27.6763 16.9119C28.1446 15.3159 28.1039 13.6137 27.5597 12.042C27.0155 10.4702 25.995 9.10718 24.6401 8.14247C23.2852 7.17775 21.6633 6.65933 20 6.65933C18.3367 6.65933 16.7148 7.17775 15.3599 8.14247C14.005 9.10718 12.9845 10.4702 12.4403 12.042C11.8961 13.6137 11.8553 15.3159 12.3237 16.9119C12.792 18.5079 13.7461 19.9182 15.0533 20.9467C12.8134 21.844 10.859 23.3325 9.39852 25.2532C7.93799 27.174 7.02608 29.4551 6.76 31.8533C6.74074 32.0284 6.75615 32.2056 6.80536 32.3747C6.85457 32.5439 6.93662 32.7017 7.04681 32.8391C7.26935 33.1166 7.59304 33.2944 7.94666 33.3333C8.30028 33.3722 8.65488 33.2691 8.93243 33.0465C9.20998 32.824 9.38776 32.5003 9.42666 32.1467C9.71944 29.5403 10.9622 27.1331 12.9176 25.385C14.873 23.637 17.4039 22.6707 20.0267 22.6707C22.6495 22.6707 25.1803 23.637 27.1357 25.385C29.0911 27.1331 30.3339 29.5403 30.6267 32.1467C30.6629 32.4743 30.8192 32.7769 31.0655 32.996C31.3117 33.2152 31.6304 33.3353 31.96 33.3333H32.1067C32.4562 33.2931 32.7756 33.1164 32.9954 32.8417C33.2152 32.5669 33.3175 32.2165 33.28 31.8667C33.0127 29.4616 32.0958 27.1746 30.6278 25.2509C29.1598 23.3272 27.1959 21.8393 24.9467 20.9467ZM20 20C18.9452 20 17.914 19.6872 17.037 19.1012C16.1599 18.5151 15.4763 17.6822 15.0726 16.7076C14.669 15.7331 14.5634 14.6607 14.7691 13.6262C14.9749 12.5916 15.4829 11.6413 16.2288 10.8954C16.9746 10.1495 17.9249 9.64159 18.9595 9.43581C19.9941 9.23002 21.0664 9.33564 22.041 9.7393C23.0155 10.143 23.8485 10.8266 24.4345 11.7036C25.0205 12.5807 25.3333 13.6118 25.3333 14.6667C25.3333 16.0811 24.7714 17.4377 23.7712 18.4379C22.771 19.4381 21.4145 20 20 20Z" fill="#111827"/>
</svg>
