<svg width="390" height="390" viewBox="0 0 390 390" fill="none" xmlns="http://www.w3.org/2000/svg">
<circle cx="195" cy="195" r="194.5" stroke="#4B5563" stroke-dasharray="3 3"/>
<path d="M115.007 168V165.188L126.351 149.25H114.976V145.375H132.226V148.188L120.913 164.125H132.257V168H115.007ZM143.531 149.594C143.515 154.203 144.796 158.953 148.687 161.438L146.531 164.531C144.062 163.047 142.515 160.578 141.609 157.672C140.593 160.891 138.89 163.594 136.312 165.156L133.874 162.219C138.093 159.609 139.656 154.594 139.656 149.781V144.875H143.531V149.594ZM145.687 155.281V152.031H149.374V142.844H153.093V169.562H149.374V155.281H145.687ZM155.249 170.875V142.438H159.062V170.875H155.249ZM186.336 142.438V170.875H182.554V156.594H179.804V169.5H176.148V142.906H179.804V153.406H182.554V142.438H186.336ZM162.554 164.438V145.719H173.148V148.938H166.554V161.094C169.304 161.047 171.742 160.891 174.492 160.406L174.773 163.656C171.304 164.312 168.273 164.422 164.523 164.438H162.554ZM222.071 155.344V158.562H211.071V160.672C216.008 161.031 218.946 162.812 218.977 165.75C218.946 169.047 215.211 170.891 209.071 170.875C202.836 170.891 199.102 169.047 199.102 165.75C199.102 162.797 202.055 161.016 207.102 160.656V158.562H196.133V155.344H222.071ZM197.289 151.156C202.555 150.688 205.461 148.75 206.18 146.781H198.508V143.656H219.727V146.781H211.993C212.68 148.766 215.571 150.688 220.977 151.156L219.571 154.281C214.196 153.766 210.586 151.75 209.071 148.984C207.571 151.734 203.993 153.781 198.602 154.281L197.289 151.156ZM203.164 165.75C203.149 167.125 205.133 167.875 209.071 167.875C212.93 167.875 214.961 167.125 214.977 165.75C214.961 164.312 212.93 163.625 209.071 163.594C205.133 163.625 203.149 164.312 203.164 165.75ZM247.282 142.469V158.5H243.282V142.469H247.282ZM223.376 154.875C228.141 153.438 230.219 149.797 230.219 146.25V143.5H234.376V146.25C234.344 149.703 236.438 153.016 241.032 154.438L239.094 157.469C235.844 156.5 233.594 154.531 232.313 151.984C231.016 154.75 228.704 156.938 225.313 158L223.376 154.875ZM228.219 170.562V159.812H247.282V170.562H228.219ZM232.157 167.375H243.376V162.969H232.157V167.375ZM260.024 144.344C264.54 144.328 267.884 147.234 267.899 151.312C267.884 155.406 264.54 158.297 260.024 158.312C255.54 158.297 252.103 155.406 252.118 151.312C252.103 147.234 255.54 144.328 260.024 144.344ZM250.931 161.875C256.009 161.891 263.04 161.828 269.118 160.969L269.431 163.844C263.118 165.078 256.368 165.125 251.399 165.125L250.931 161.875ZM256.087 151.312C256.071 153.562 257.774 154.859 260.024 154.844C262.29 154.859 264.009 153.562 264.024 151.312C264.009 149.094 262.29 147.781 260.024 147.781C257.774 147.781 256.071 149.094 256.087 151.312ZM270.743 170.938V142.438H274.712V170.938H270.743ZM90.225 189.344C90.225 193.391 92.3187 197.953 96.85 200.094L94.6312 203.094C91.5844 201.719 89.475 199.047 88.2875 195.875C87.0531 199.297 84.8187 202.172 81.6 203.594L79.4125 200.5C84.0531 198.453 86.2562 193.609 86.2875 189.344V188.25H80.4125V185.062H86.2562V181.062H90.2562V185.062H96.0375V188.25H90.225V189.344ZM98.3812 208.875V180.438H102.381V191.469H106.569V194.812H102.381V208.875H98.3812ZM131.249 180.438V195.062H127.28V192.219H122.03V194.25H108.499V181.656H112.499V184.969H118.092V181.656H122.03V184.062H127.28V180.438H131.249ZM112.311 199.188V196.125H131.249V203.719H116.342V205.438H132.092V208.562H112.342V200.812H127.28V199.188H112.311ZM112.499 191.125H118.092V188H112.499V191.125ZM122.03 189.219H127.28V187.031H122.03V189.219ZM157.366 180.438V192H161.085V195.312H157.366V208.875H153.335V180.438H157.366ZM134.272 200.844C136.351 200.844 138.772 200.844 141.304 200.781V198.344C138.288 197.75 136.319 195.828 136.335 193.188C136.319 190.016 139.194 187.844 143.335 187.844C147.397 187.844 150.304 190.016 150.335 193.188C150.304 195.828 148.304 197.766 145.304 198.344V200.641C147.554 200.516 149.819 200.328 151.929 200.031L152.179 202.938C146.132 204.062 139.601 204.109 134.804 204.094L134.272 200.844ZM134.835 186.719V183.594H141.304V180.594H145.304V183.594H151.71V186.719H134.835ZM140.116 193.188C140.101 194.688 141.382 195.5 143.335 195.5C145.226 195.5 146.491 194.688 146.491 193.188C146.491 191.719 145.226 190.891 143.335 190.875C141.382 190.891 140.101 191.719 140.116 193.188ZM178.546 189.156V192.344H173.452V195.219C175.702 195.109 177.937 194.969 180.046 194.75L180.327 197.594C174.296 198.438 167.874 198.594 162.609 198.594L162.077 195.438C164.359 195.438 166.874 195.406 169.452 195.344V192.344H164.484V182.156H178.296V185.344H168.484V189.156H178.546ZM166.484 208.375V200.219H170.515V205.188H186.609V208.375H166.484ZM181.796 201.844V180.406H185.859V201.844H181.796ZM206.812 186.875C206.797 191.969 208.969 197.109 213.531 199.312L211.125 202.5C208.078 200.984 206.016 198.172 204.844 194.75C203.594 198.422 201.406 201.438 198.188 203.031L195.719 199.812C200.547 197.594 202.812 192.156 202.812 186.875V182.625H206.812V186.875ZM214.781 208.875V180.438H218.781V191.406H222.969V194.781H218.781V208.875H214.781ZM249.617 193.906V197.094H223.68V193.906H229.524V190.5C227.446 189.578 226.274 188.172 226.274 186.344C226.274 182.906 230.321 180.859 236.649 180.844C242.93 180.859 246.977 182.906 246.992 186.344C246.977 188.203 245.774 189.625 243.649 190.531V193.906H249.617ZM226.649 203.688C226.649 200.406 230.383 198.578 236.617 198.594C242.758 198.578 246.492 200.406 246.524 203.688C246.492 207.047 242.758 208.844 236.617 208.844C230.383 208.844 226.649 207.047 226.649 203.688ZM230.43 186.344C230.399 187.906 232.633 188.703 236.649 188.688C240.617 188.703 242.867 187.906 242.867 186.344C242.867 184.75 240.617 183.906 236.649 183.906C232.633 183.906 230.399 184.75 230.43 186.344ZM230.711 203.688C230.696 205.141 232.68 205.875 236.617 205.875C240.477 205.875 242.508 205.141 242.524 203.688C242.508 202.281 240.477 201.609 236.617 201.594C232.68 201.609 230.696 202.281 230.711 203.688ZM233.555 193.906H239.68V191.516C238.742 191.641 237.727 191.688 236.649 191.688C235.539 191.688 234.508 191.625 233.555 191.516V193.906ZM282.04 180.469V196.844H278.071V194.062H271.665V190.875H278.071V188.156H271.962C270.181 192.656 266.134 195.766 259.884 197.469L258.321 194.312C264.853 192.609 268.071 189.469 268.634 185.562H259.853V182.375H272.978C272.978 183.297 272.915 184.188 272.774 185.031H278.071V180.469H282.04ZM262.853 202.938C262.837 199.422 266.728 197.203 272.571 197.188C278.337 197.203 282.243 199.422 282.259 202.938C282.243 206.5 278.337 208.75 272.571 208.75C266.728 208.75 262.837 206.5 262.853 202.938ZM266.821 202.938C266.821 204.703 268.962 205.594 272.571 205.594C276.103 205.594 278.243 204.703 278.259 202.938C278.243 201.188 276.103 200.281 272.571 200.312C268.962 200.281 266.821 201.188 266.821 202.938ZM309.376 180.438V197.625H305.408V192.031H301.72V188.781H305.408V180.438H309.376ZM285.47 186.094V182.906H291.908V180.188H295.845V182.906H302.22V186.094H285.47ZM287.033 192.125C287.033 189.156 289.892 187.031 293.876 187.031C297.876 187.031 300.689 189.156 300.689 192.125C300.689 195.234 297.861 197.266 293.876 197.281C289.892 197.266 287.033 195.234 287.033 192.125ZM290.251 208.562V198.844H309.376V208.562H290.251ZM290.876 192.125C290.845 193.562 292.017 194.328 293.876 194.344C295.689 194.328 296.876 193.562 296.876 192.125C296.876 190.781 295.689 190.016 293.876 190.031C292.017 190.016 290.845 190.781 290.876 192.125ZM294.251 205.375H305.47V201.969H294.251V205.375ZM193.441 218.438V246.875H189.66V218.438H193.441ZM168.254 238.562C172.441 235.984 174.004 230.891 174.004 226.062V224.531H169.348V221.344H182.16V224.531H177.848V226.062C177.832 230.781 179.316 235.562 183.473 237.938L181.129 240.875C178.582 239.375 176.926 236.844 175.957 233.781C174.988 237.094 173.269 239.906 170.66 241.5L168.254 238.562ZM180.129 231.406V228.188H183.879V218.906H187.629V245.562H183.879V231.406H180.129ZM208.996 236.156C215.215 236.156 219.121 238.125 219.153 241.531C219.121 244.891 215.215 246.891 208.996 246.875C202.824 246.891 198.856 244.891 198.871 241.531C198.856 238.125 202.824 236.156 208.996 236.156ZM196.246 234.344V231.125H205.934V226.156H209.871V231.125H222.059V234.344H196.246ZM199.153 222.844V219.719H218.996V222.031C219.012 224.297 219.012 226.734 218.184 229.656L214.278 229.281C214.918 226.703 214.996 224.781 215.028 222.844H199.153ZM202.84 241.531C202.824 243.062 205.074 243.844 208.996 243.844C212.918 243.844 215.184 243.062 215.184 241.531C215.184 239.953 212.918 239.109 208.996 239.125C205.074 239.109 202.824 239.953 202.84 241.531Z" fill="white"/>
</svg>
