<svg width="640" height="370" viewBox="0 0 640 370" fill="none" xmlns="http://www.w3.org/2000/svg">
<mask id="mask0_313_1739" style="mask-type:alpha" maskUnits="userSpaceOnUse" x="0" y="0" width="640" height="370">
<rect width="640" height="370" fill="#D9D9D9"/>
</mask>
<g mask="url(#mask0_313_1739)">
<path d="M611 -113C620 -46.0003 617.008 33.4997 555.009 58C509.065 76.1555 472.009 50.9997 451.008 24.9997C417.339 -16.6855 425.009 -67.5 500.009 -46.0003C596.531 -18.3308 646.715 94.9192 555.009 113C484 127 453.509 33.4997 387.008 72.9998C354.63 92.2321 356.008 118.5 356.008 154V178" stroke="black" stroke-width="3" stroke-linecap="round"/>
<rect x="239" y="281" width="98" height="56" fill="black" stroke="black" stroke-width="2"/>
<rect x="166.478" y="241.559" width="103.962" height="71.3959" fill="white" stroke="black" stroke-width="2"/>
<rect x="55" y="152.627" width="164.085" height="113.983" fill="#FFE03B" stroke="black" stroke-width="2"/>
<rect x="55" y="152.627" width="164.085" height="113.983" fill="#FFE03B" stroke="black" stroke-width="2"/>
<rect x="288" y="231" width="126" height="82" fill="#6AFFED" stroke="black" stroke-width="2"/>
<path d="M55 266.607L165.852 312.326" stroke="black" stroke-width="2"/>
<path d="M219.085 265.984L269.814 312.329" stroke="black" stroke-width="2"/>
<path d="M219.085 152L270.44 241.558" stroke="black" stroke-width="2"/>
<path fill-rule="evenodd" clip-rule="evenodd" d="M337.464 223.821L356.395 260L375.326 223.821C381.175 212.643 376.057 199.724 365.806 194.701L365.806 180L346.983 180L346.983 194.701C336.733 199.724 331.615 212.643 337.464 223.821Z" fill="#FFE03B"/>
<path d="M356.395 260L355.066 260.695L356.395 263.235L357.724 260.695L356.395 260ZM337.464 223.821L338.793 223.125L338.793 223.125L337.464 223.821ZM375.326 223.821L373.997 223.125L373.997 223.125L375.326 223.821ZM365.806 194.701L364.306 194.701L364.306 195.636L365.146 196.048L365.806 194.701ZM365.806 180L367.306 180L367.306 178.5L365.806 178.5L365.806 180ZM346.983 180L346.983 178.5L345.483 178.5L345.483 180L346.983 180ZM346.983 194.701L347.643 196.048L348.483 195.637L348.483 194.701L346.983 194.701ZM357.724 259.305L338.793 223.125L336.135 224.516L355.066 260.695L357.724 259.305ZM373.997 223.125L355.066 259.305L357.724 260.695L376.655 224.516L373.997 223.125ZM365.146 196.048C374.687 200.723 379.43 212.742 373.997 223.125L376.655 224.516C382.919 212.544 377.427 198.724 366.466 193.354L365.146 196.048ZM364.306 180L364.306 194.701L367.306 194.701L367.306 180L364.306 180ZM346.983 181.5L365.806 181.5L365.806 178.5L346.983 178.5L346.983 181.5ZM348.483 194.701L348.483 180L345.483 180L345.483 194.701L348.483 194.701ZM338.793 223.125C333.36 212.742 338.102 200.723 347.643 196.048L346.323 193.354C335.363 198.725 329.87 212.544 336.135 224.516L338.793 223.125Z" fill="black"/>
<path d="M356.394 260L356.394 210" stroke="black" stroke-width="3"/>
<circle cx="356.394" cy="215" r="5" transform="rotate(180 356.394 215)" fill="black"/>
<path d="M90.0977 201L84.4375 181.203H88.9219L92.2578 195.039H92.4219L96.0586 181.203H99.9141L103.551 195.066H103.715L107.051 181.203H111.535L105.875 201H101.855L98.082 187.93H97.918L94.1172 201H90.0977ZM130.088 191.102C130.088 197.568 126.083 201.273 120.846 201.273C115.569 201.273 111.577 197.541 111.577 191.102C111.577 184.635 115.569 180.93 120.846 180.93C126.083 180.93 130.088 184.635 130.088 191.102ZM115.76 191.102C115.76 195.326 117.77 197.623 120.846 197.637C123.895 197.623 125.919 195.326 125.905 191.102C125.919 186.863 123.895 184.58 120.846 184.566C117.77 184.58 115.76 186.863 115.76 191.102ZM132.482 201V181.203H140.247C144.745 181.203 147.329 183.732 147.329 187.656C147.329 190.363 146.085 192.332 143.829 193.303L148.04 201H143.501L139.714 193.973H136.583V201H132.482ZM136.583 190.637H139.482C141.915 190.637 143.105 189.639 143.091 187.656C143.105 185.66 141.915 184.58 139.482 184.566H136.583V190.637ZM149.613 201V181.203H153.715V189.98H153.988L161.179 181.203H166.129L158.746 190.062L166.211 201H161.289L155.793 192.824L153.715 195.34V201H149.613ZM104.371 209.633V218.93H108.035V221.855H104.371V234.516H100.871V209.633H104.371ZM85.5312 228.746V211.602H89.0039V217.672H94.1719V211.602H97.6445V228.746H85.5312ZM89.0039 225.93H94.1719V220.379H89.0039V225.93ZM131.155 228.883V231.754H108.378V228.883H117.975V225.137H111.003V216.77H125.085V214.035H110.975V211.246H128.53V219.504H114.503V222.293H129.104V225.137H121.448V228.883H131.155ZM151.65 209.633V219.176H155.177V222.047H151.65V234.461H148.15V209.633H151.65ZM131.743 227.488C137.636 224.535 140.808 220.57 141.464 215.02H133.165V212.176H145.005C144.978 219.613 142.079 226.053 133.712 230.168L131.743 227.488ZM176.574 209.633V234.516H173.047V209.633H176.574ZM155.738 227.461C162.164 224.426 164.994 220.488 165.554 214.965H157.078V212.23H169.109C169.095 219.777 166.457 226.053 157.57 230.25L155.738 227.461Z" fill="black"/>
</g>
</svg>
