<svg width="182" height="56" viewBox="0 0 182 56" fill="none" xmlns="http://www.w3.org/2000/svg">
<path d="M47.9467 28.9467C49.2539 27.9182 50.208 26.5079 50.6763 24.9119C51.1446 23.316 51.1039 21.6137 50.5597 20.042C50.0155 18.4702 48.995 17.1072 47.6401 16.1425C46.2852 15.1778 44.6633 14.6593 43 14.6593C41.3367 14.6593 39.7148 15.1778 38.3599 16.1425C37.005 17.1072 35.9845 18.4702 35.4403 20.042C34.8961 21.6137 34.8553 23.316 35.3237 24.9119C35.792 26.5079 36.7461 27.9182 38.0533 28.9467C35.8134 29.8441 33.859 31.3325 32.3985 33.2532C30.938 35.174 30.0261 37.4551 29.76 39.8533C29.7407 40.0284 29.7562 40.2056 29.8054 40.3747C29.8546 40.5439 29.9366 40.7017 30.0468 40.8391C30.2694 41.1167 30.593 41.2944 30.9467 41.3333C31.3003 41.3722 31.6549 41.2691 31.9324 41.0465C32.21 40.824 32.3878 40.5003 32.4267 40.1467C32.7194 37.5403 33.9622 35.1331 35.9176 33.3851C37.873 31.637 40.4039 30.6707 43.0267 30.6707C45.6495 30.6707 48.1803 31.637 50.1357 33.3851C52.0911 35.1331 53.3339 37.5403 53.6267 40.1467C53.6629 40.4743 53.8192 40.7769 54.0655 40.996C54.3117 41.2152 54.6304 41.3353 54.96 41.3333H55.1067C55.4562 41.2931 55.7756 41.1164 55.9954 40.8417C56.2152 40.5669 56.3175 40.2165 56.28 39.8667C56.0127 37.4616 55.0958 35.1746 53.6278 33.2509C52.1598 31.3272 50.1959 29.8393 47.9467 28.9467V28.9467ZM43 28C41.9452 28 40.914 27.6872 40.037 27.1012C39.1599 26.5151 38.4763 25.6822 38.0726 24.7076C37.669 23.7331 37.5634 22.6608 37.7691 21.6262C37.9749 20.5916 38.4829 19.6413 39.2288 18.8954C39.9746 18.1496 40.9249 17.6416 41.9595 17.4358C42.9941 17.23 44.0664 17.3356 45.041 17.7393C46.0155 18.143 46.8485 18.8266 47.4345 19.7036C48.0205 20.5807 48.3333 21.6118 48.3333 22.6667C48.3333 24.0812 47.7714 25.4377 46.7712 26.4379C45.771 27.4381 44.4145 28 43 28Z" fill="white"/>
<path d="M76.9375 22.6875L79.6875 31.3125H79.7969L82.5625 22.6875H85.1562L81.25 34H78.2344L74.3125 22.6875H76.9375ZM88.7812 22.6875V34H86.4375V22.6875H88.7812ZM90.6875 34V22.6875H95.125C97.6953 22.6875 99.1719 24.2734 99.1719 26.5C99.1719 28.7578 97.6719 30.3125 95.0625 30.3125H93.0312V34H90.6875ZM93.0312 28.4219H94.6875C96.0781 28.4219 96.7578 27.6406 96.75 26.5C96.7578 25.375 96.0781 24.6172 94.6875 24.6094H93.0312V28.4219ZM104.344 34V22.6875H108.781C111.352 22.6875 112.828 24.1328 112.828 26.375C112.828 27.9219 112.117 29.0469 110.828 29.6016L113.234 34H110.641L108.477 29.9844H106.688V34H104.344ZM106.688 28.0781H108.344C109.734 28.0781 110.414 27.5078 110.406 26.375C110.414 25.2344 109.734 24.6172 108.344 24.6094H106.688V28.0781ZM124.812 28.3438C124.812 32.0391 122.523 34.1562 119.531 34.1562C116.516 34.1562 114.234 32.0234 114.234 28.3438C114.234 24.6484 116.516 22.5312 119.531 22.5312C122.523 22.5312 124.812 24.6484 124.812 28.3438ZM116.625 28.3438C116.625 30.7578 117.773 32.0703 119.531 32.0781C121.273 32.0703 122.43 30.7578 122.422 28.3438C122.43 25.9219 121.273 24.6172 119.531 24.6094C117.773 24.6172 116.625 25.9219 116.625 28.3438ZM136.859 28.3438C136.859 32.0391 134.57 34.1562 131.578 34.1562C128.562 34.1562 126.281 32.0234 126.281 28.3438C126.281 24.6484 128.562 22.5312 131.578 22.5312C134.57 22.5312 136.859 24.6484 136.859 28.3438ZM128.672 28.3438C128.672 30.7578 129.82 32.0703 131.578 32.0781C133.32 32.0703 134.477 30.7578 134.469 28.3438C134.477 25.9219 133.32 24.6172 131.578 24.6094C129.82 24.6172 128.672 25.9219 128.672 28.3438ZM138.547 22.6875H141.453L144.594 30.3594H144.719L147.859 22.6875H150.766V34H148.484V26.5938H148.391L145.438 33.9531H143.875L140.922 26.5625H140.828V34H138.547V22.6875Z" fill="white"/>
</svg>
